<svg width="575" height="636" viewBox="0 0 575 636" fill="none" xmlns="http://www.w3.org/2000/svg">
<circle cx="383" cy="125" r="125" fill="white"/>
<path fill-rule="evenodd" clip-rule="evenodd" d="M382.88 19.3029C441.187 19.3029 488.454 66.5699 488.454 124.882C488.454 183.189 441.187 230.456 382.88 230.456C324.572 230.456 277.304 183.189 277.304 124.882C277.304 66.5699 324.572 19.3029 382.88 19.3029Z" fill="#F57E14"/>
<path fill-rule="evenodd" clip-rule="evenodd" d="M382.88 19.3023C392.505 19.3023 401.819 20.5993 410.678 23.0109C341.716 27.6893 286.433 82.1857 280.515 150.803C278.421 142.507 277.304 133.826 277.304 124.881C277.304 66.5694 324.572 19.3023 382.88 19.3023Z" fill="white"/>
<path fill-rule="evenodd" clip-rule="evenodd" d="M472.36 68.8368C482.559 85.0801 488.454 104.292 488.454 124.882C488.454 183.189 441.187 230.456 382.88 230.456C354.324 230.456 328.419 219.116 309.415 200.691C316.825 201.902 324.427 202.54 332.179 202.54C407.462 202.54 468.893 143.264 472.36 68.8368Z" fill="#F25D19"/>
<path fill-rule="evenodd" clip-rule="evenodd" d="M282.401 157.036C282.401 157.036 309.903 151.371 329.514 131.757C349.126 112.148 356.3 94.0831 360.77 79.2063C365.24 64.3295 363.375 33.2416 363.375 33.2416L361.283 22.0197L351.701 24.1954C351.701 24.1954 356.48 41.666 353.416 59.7475C350.352 77.8237 344.222 97.4378 328.442 116.436C312.66 135.434 293.355 142.786 293.355 142.786L278.034 147.54L282.401 157.036ZM415.946 226.35C415.946 226.35 404.445 180.755 423.893 152.443C443.347 124.131 449.242 121.361 463.116 112.454C476.996 103.547 485.329 102.942 485.329 102.942L484.874 92.6897C484.874 92.6897 462.966 97.4378 442.741 113.22C422.516 129.003 414.091 147.234 414.091 147.234C414.091 147.234 402.291 170.369 401.68 190.745C401.069 211.125 404.745 229.667 404.745 229.667L415.946 226.35Z" fill="#F5F0A1"/>
<path fill-rule="evenodd" clip-rule="evenodd" d="M463.288 112.347C477.066 103.542 485.329 102.942 485.329 102.942L485.137 98.5153C484.66 96.661 484.129 94.8228 483.556 93.0114C481.048 93.6545 475.169 95.3372 467.757 98.5366C466.503 103.242 465.008 107.851 463.288 112.347ZM415.688 225.252C414.536 220.107 410.077 197.658 414.456 175.9C410.544 178.735 406.482 181.372 402.28 183.794C401.958 186.125 401.749 188.451 401.68 190.745C401.165 207.776 403.652 223.526 404.483 228.242C408.298 227.444 412.034 226.442 415.688 225.252Z" fill="#ECCD81"/>
<path fill-rule="evenodd" clip-rule="evenodd" d="M350.087 107.952C335.545 132.282 312.633 150.128 285.548 158.29C293.15 180.471 308.324 200.16 329.929 213.118L380.507 125.514L350.087 107.952ZM363.146 23.8844C369.624 51.43 365.62 80.1921 351.824 104.94L382.244 122.507L432.821 34.9027C410.796 22.6679 386.155 19.3774 363.146 23.8844ZM339.786 97.995C351.742 76.4354 355.246 51.4514 349.71 27.4696C327.433 35.042 307.645 50.2456 294.642 71.9284L339.786 97.995ZM281.935 144.86C305.467 137.663 325.356 122.138 338.049 101.001L292.905 74.9403C280.626 97.0411 277.356 121.779 281.935 144.86ZM353.031 26.4031C358.692 50.6368 355.654 76.9231 342.479 100.299L342.465 100.321C342.293 100.632 342.118 100.937 341.941 101.243C341.764 101.548 341.586 101.854 341.406 102.159L341.392 102.18L341.39 102.186C327.78 125.198 306.49 141.05 282.672 148.268C283.2 150.525 283.804 152.765 284.482 154.983C309.821 147.363 332.474 130.626 347.077 106.216L347.092 106.189L347.356 105.75C347.559 105.407 347.76 105.064 347.959 104.721C348.154 104.378 348.346 104.04 348.537 103.702L348.55 103.681L348.802 103.231L348.815 103.204C362.654 78.354 365.816 50.369 359.748 24.6133C357.489 25.1331 355.249 25.7333 353.031 26.4031ZM425.972 151.768C414.016 173.322 410.517 198.311 416.047 222.293C438.325 214.716 458.116 199.512 471.117 177.829L425.972 151.768ZM483.829 104.897C460.292 112.095 440.404 127.625 427.714 148.756L472.854 174.823C485.131 152.716 488.406 127.979 483.829 104.897ZM481.278 94.7795C455.94 102.4 433.288 119.131 418.684 143.547L418.668 143.569L418.421 143.987L418.405 144.008C418.202 144.351 417.998 144.694 417.8 145.042C417.612 145.369 417.425 145.701 417.237 146.034L417.221 146.055C417.13 146.221 417.039 146.387 416.948 146.554C403.105 171.404 399.943 199.389 406.015 225.144C408.271 224.624 410.511 224.03 412.73 223.354C407.114 199.319 410.077 173.226 422.966 150.026L422.977 150.005C423.079 149.823 423.18 149.64 423.282 149.458C423.459 149.142 423.636 148.831 423.818 148.515C424 148.204 424.182 147.893 424.365 147.588C437.993 124.528 459.268 108.708 483.089 101.489C482.559 99.233 481.959 96.9928 481.278 94.7795ZM415.672 141.805C430.217 117.47 453.132 99.6295 480.212 91.473C472.612 69.2918 457.435 49.5972 435.833 36.639L385.254 124.244L415.672 141.805ZM402.618 225.878C396.138 198.327 400.142 169.565 413.936 144.817L383.518 127.25L332.939 214.855C354.964 227.09 379.605 230.38 402.618 225.878ZM478.025 179.812C447.687 232.358 380.493 250.359 327.949 220.021C275.404 189.689 257.4 122.491 287.736 69.9456C318.073 17.4053 385.265 -0.601151 437.811 29.7365C490.356 60.0742 508.363 127.266 478.025 179.812Z" fill="#B53B20"/>
<path fill-rule="evenodd" clip-rule="evenodd" d="M151.782 578.749C165.479 578.749 173.281 585.56 173.281 599.257C173.281 612.953 167.478 623.257 153.781 623.257C140.079 623.257 126.98 617.248 126.98 603.551C126.98 589.854 138.08 578.749 151.782 578.749ZM138.478 574.357L38.2815 472.757C26.7409 495.147 29.9109 518.146 44.9963 540.8C52.5962 552.214 51.5754 559.141 41.1638 567.958C29.6209 577.734 22.2657 583.763 10.7217 593.539C6.9352 596.742 6.70075 602.233 10.1995 605.727C15.7163 611.246 21.2337 616.765 26.751 622.278C30.2498 625.778 35.7363 625.543 38.9428 621.757C48.7184 610.214 54.3057 602.418 64.0807 590.875C72.8972 580.46 79.8252 579.444 91.2385 587.039C100.648 593.309 110.251 597.892 119.868 600.292C121.035 588.733 128.343 578.985 138.478 574.357ZM176.281 580.757C174.176 578.351 179.338 576.2 179.781 575.757C273.281 463.257 138.281 362.257 53.7815 457.757C49.9316 461.604 42.585 461.542 39.9124 465.507L146.341 571.94C148.108 571.637 149.925 571.474 151.782 571.474C161.979 571.474 170.403 573.331 176.281 580.757ZM5.05682 610.87C-1.42974 604.386 -1.93673 591.68 5.05687 585.757C16.6003 575.981 23.9555 569.952 35.4995 560.175C43.0484 553.787 44.4292 553.066 38.9427 544.833C17.0959 512.021 15.3684 477.796 44.5324 448.631C156.036 337.125 298.281 472.757 186.781 584.257C185.929 585.109 182.781 587.314 182.781 587.314C183.853 592.257 183.853 598.257 183.853 603.551C183.853 621.264 169.489 635.622 151.782 635.622C135.5 635.622 118.351 622.473 116.281 606.757C105.36 604.323 98.056 600.32 87.2074 593.096C78.9687 587.611 78.1749 590.707 71.7814 598.257C62.0064 609.8 56.4197 617.596 46.6435 629.139C40.7207 636.133 28.0949 633.911 21.6084 627.422C16.091 621.908 10.5736 616.389 5.05682 610.87Z" fill="white"/>
<path fill-rule="evenodd" clip-rule="evenodd" d="M33.1308 622.555C33.1308 622.555 40.7719 622.555 43.1228 620.792C45.4742 619.029 76.332 578.621 81.1807 580.677C86.03 582.738 110.128 599.781 124.233 598.018C138.342 596.255 156.269 583.175 156.269 583.175L61.7843 465.328L42.5354 471.352C42.5354 471.352 27.4002 493.247 34.7473 514.7C42.0944 536.152 52.3798 543.353 51.2044 549.233C50.0289 555.113 51.9393 559.075 39.3025 568.337C26.6652 577.593 9.32666 591.696 9.32666 596.106C9.32666 600.516 14.3224 606.391 14.3224 606.391L33.1308 622.555Z" fill="#F1B20D"/>
<path fill-rule="evenodd" clip-rule="evenodd" d="M57.397 466.7L42.5353 471.352C42.5353 471.352 27.4001 493.246 34.7472 514.699C32.8985 507.535 40.4506 486.483 57.397 466.7Z" fill="white"/>
<path fill-rule="evenodd" clip-rule="evenodd" d="M33.1309 622.555C33.1309 622.555 40.7719 622.555 43.1228 620.792C45.4742 619.029 76.332 578.621 81.1808 580.677C86.03 582.738 110.128 599.781 124.233 598.018C138.342 596.255 156.269 583.175 156.269 583.175L145.198 569.365C143.635 570.059 142.047 570.737 140.403 571.374C119.017 579.67 99.5312 574.52 88.7056 570.017C80.16 566.466 72.6392 570.891 66.8725 577.1C57.2085 587.508 44.5485 602.263 37.2431 609.916C33.9064 613.411 30.1011 615.488 26.2705 616.66L33.1309 622.555Z" fill="#F57E14"/>
<path fill-rule="evenodd" clip-rule="evenodd" d="M42.5354 471.352L143.784 574.828L163.176 593.901C163.176 593.901 192.626 562.75 204.905 541.004C217.184 519.259 217.25 475.469 191.095 442.848C164.939 410.227 88.8219 404.511 42.5354 471.352Z" fill="#B91D24"/>
<path fill-rule="evenodd" clip-rule="evenodd" d="M42.5354 471.352L48.8746 477.833C69.4886 447.555 112.243 413.588 177.171 430.723C143.944 410.067 82.256 413.994 42.5354 471.352Z" fill="white"/>
<path fill-rule="evenodd" clip-rule="evenodd" d="M140.403 571.374L143.784 574.828L163.176 593.901C163.176 593.901 192.626 562.75 204.905 541.004C215.534 522.173 217.009 486.822 200.233 456.499C202.705 481.179 204.052 546.678 140.403 571.374Z" fill="#8C191D"/>
<path fill-rule="evenodd" clip-rule="evenodd" d="M148.775 573.635C161.66 573.635 172.099 584.074 172.099 596.954C172.099 609.834 161.66 620.277 148.775 620.277C135.9 620.277 125.457 609.834 125.457 596.954C125.457 584.074 135.9 573.635 148.775 573.635Z" fill="#F5F0A1"/>
<path fill-rule="evenodd" clip-rule="evenodd" d="M148.775 573.636C150.903 573.636 152.964 573.918 154.917 574.453C139.683 575.486 127.472 587.523 126.166 602.68C125.703 600.85 125.457 598.933 125.457 596.954C125.457 584.074 135.9 573.636 148.775 573.636Z" fill="white"/>
<path fill-rule="evenodd" clip-rule="evenodd" d="M168.542 584.577C170.793 588.165 172.098 592.405 172.098 596.954C172.098 609.834 161.66 620.277 148.775 620.277C142.469 620.277 136.748 617.769 132.549 613.704C134.189 613.971 135.864 614.11 137.576 614.11C154.207 614.11 167.776 601.014 168.542 584.577Z" fill="#ECCD81"/>
<path fill-rule="evenodd" clip-rule="evenodd" d="M148.775 574.278C161.326 574.278 171.497 584.455 171.497 597.006C171.497 609.557 161.326 619.733 148.775 619.733C136.219 619.733 126.048 609.557 126.048 597.006C126.048 584.455 136.219 574.278 148.775 574.278ZM136.584 570.254L42.7558 476.43C32.1805 496.948 37.0981 518.745 50.9216 539.504C57.8858 549.963 56.9504 556.31 47.4097 564.39C36.8324 573.348 26.254 582.306 15.6756 591.265C12.2059 594.2 11.991 599.231 15.1971 602.433C20.2525 607.491 25.3083 612.548 30.3641 617.6C33.5702 620.807 38.5978 620.592 41.5361 617.122C50.494 606.545 59.4524 595.968 68.4097 585.39C76.4887 575.846 82.8372 574.916 93.2958 581.875C101.918 587.621 110.718 591.82 119.53 594.02C120.6 583.427 127.296 574.494 136.584 570.254ZM171.831 578.781C172.232 578.39 172.638 577.994 173.044 577.588C271.828 478.805 153.992 360.974 55.2091 459.757C51.6813 463.283 48.7121 466.876 46.263 470.509L143.79 568.039C145.408 567.761 147.074 567.612 148.775 567.612C158.119 567.612 166.445 571.976 171.831 578.781ZM10.4846 607.146C4.54062 601.205 4.96 591.604 11.3686 586.177C21.9465 577.218 32.5249 568.26 43.1032 559.301C50.0207 553.447 50.402 550.744 45.3744 543.199C25.355 513.132 23.7721 481.77 50.4966 455.044C155.508 350.031 282.765 477.294 177.757 582.301C176.976 583.083 176.195 583.833 175.409 584.568C177.177 588.345 178.163 592.56 178.163 597.006C178.163 613.237 165.001 626.394 148.775 626.394C133.855 626.394 121.53 615.277 119.633 600.876C109.625 598.645 99.543 594.045 89.6019 587.425C82.0523 582.399 79.354 582.779 73.4954 589.697C64.538 600.275 55.5802 610.852 46.6218 621.429C41.1944 627.838 31.5956 628.26 25.6516 622.313C20.5958 617.261 15.5399 612.204 10.4846 607.146Z" fill="black"/>
<circle cx="408" cy="442" r="167" fill="white"/>
<g clip-path="url(#clip0_644_135)">
<path d="M263.093 437.702C278.673 461.72 333.137 530.106 435.222 504.381C433.282 464.355 408.389 441.378 408.389 441.378C338.22 455.291 297.236 395.791 282.496 368.688C270.695 389.08 263.717 412.596 263.093 437.702Z" fill="#00147A"/>
<path d="M435.222 504.381C333.137 530.106 278.673 461.72 263.093 437.702C263.062 438.927 263 440.144 263 441.376C263 470.571 271.637 497.733 286.449 520.51C288.507 522.463 335.859 566.418 423.225 560.718C433.037 539.429 436.004 520.516 435.222 504.381Z" fill="#ECC928"/>
<path d="M286.449 520.51C283.756 516.368 281.273 512.078 279.003 507.66C303.108 554.616 351.978 586.765 408.39 586.765C414.517 577.731 419.387 569.046 423.226 560.718C335.859 566.418 288.507 522.463 286.449 520.51Z" fill="#00147A"/>
<path d="M537.56 508.058C535.298 512.45 532.802 516.733 530.091 520.895C558.924 476.685 562.622 418.305 534.661 369.311C523.778 368.467 513.82 368.543 504.685 369.337C552.94 442.389 538.236 505.302 537.56 508.058Z" fill="#00147A"/>
<path d="M399.82 296.262C404.752 295.966 409.709 295.928 414.671 296.136C361.937 293.899 309.843 320.51 281.977 369.558C286.805 379.348 291.951 387.873 297.296 395.324C335.497 316.546 397.106 297.087 399.82 296.262Z" fill="#ECECEC"/>
<path d="M483.357 316.86C454.778 318.542 368.414 332.115 340.353 433.583C376.113 451.668 408.388 441.376 408.388 441.376C430.954 373.493 502.933 367.25 533.779 367.823C521.877 347.488 504.878 329.806 483.357 316.86Z" fill="#ECECEC"/>
<path d="M340.353 433.584C368.414 332.116 454.778 318.542 483.357 316.861C482.307 316.229 481.28 315.574 480.208 314.965C454.824 300.543 426.941 294.635 399.82 296.262C397.105 297.087 335.497 316.545 297.295 395.323C310.958 414.371 325.937 426.293 340.353 433.584Z" fill="#ECC928"/>
<path d="M477.217 569.388C490.354 543.952 522.752 462.752 449.808 386.842C416.007 408.367 408.388 441.376 408.388 441.376C455.252 495.422 423.891 560.51 407.658 586.746C431.22 586.886 455.102 581.29 477.217 569.388Z" fill="#00147A"/>
<path d="M449.808 386.842C522.751 462.753 490.354 543.952 477.217 569.388C478.296 568.807 479.384 568.258 480.454 567.647C505.81 553.176 525.119 532.211 537.559 508.057C538.235 505.302 552.939 442.388 504.683 369.336C481.331 371.366 463.435 378.164 449.808 386.842Z" fill="#ECC928"/>
<g style="mix-blend-mode:color-burn">
<path d="M414.95 587.819C414.456 587.895 413.972 587.955 413.5 588C413.985 587.941 414.468 587.881 414.95 587.819C441.853 583.696 501.114 533.576 534.5 369C544 387 559 408.5 552 466C543.046 513.256 508.359 575.854 414.95 587.819Z" fill="#C1C1C1"/>
</g>
<g style="mix-blend-mode:soft-light">
<path d="M263 438C283.705 394.509 351.731 303.494 447.496 301.283C344.5 275.002 267 348.5 263 438Z" fill="#D9D9D9"/>
</g>
</g>
<circle cx="139.5" cy="248.5" r="139.5" fill="white"/>
<path fill-rule="evenodd" clip-rule="evenodd" d="M139.338 129.814C204.798 129.814 257.864 182.878 257.864 248.342C257.864 313.801 204.798 366.865 139.338 366.865C73.8777 366.865 20.812 313.801 20.812 248.342C20.812 182.878 73.8777 129.814 139.338 129.814Z" fill="#F5F0A1"/>
<path fill-rule="evenodd" clip-rule="evenodd" d="M139.338 129.813C150.14 129.813 160.602 131.269 170.547 133.977C93.1248 139.229 31.0609 200.41 24.417 277.443C22.0664 268.13 20.812 258.383 20.812 248.342C20.812 182.878 73.8777 129.813 139.338 129.813Z" fill="white"/>
<path fill-rule="evenodd" clip-rule="evenodd" d="M239.796 185.423C251.239 203.659 257.863 225.227 257.863 248.342C257.863 313.801 204.798 366.865 139.338 366.865C107.279 366.865 78.1974 354.135 56.8621 333.45C65.1809 334.81 73.7146 335.526 82.4173 335.526C166.935 335.526 235.902 268.979 239.796 185.423Z" fill="#ECCD81"/>
<path fill-rule="evenodd" clip-rule="evenodd" d="M119.479 345.723H159.195L174.148 299.704L163.796 285.451H114.689L104.467 299.523L119.479 345.723ZM160.089 349.622H118.584L105.785 358.923C116.404 362.142 127.668 363.874 139.338 363.874C151.006 363.874 162.27 362.142 172.887 358.923L160.089 349.622ZM226.667 297.321L238.778 260.044L198.943 231.105L182.842 236.333L167.42 283.802L177.239 297.321H226.667ZM243.188 259.093L229.675 300.684L234.131 314.396C246.795 296.256 254.385 274.315 254.846 250.622L243.188 259.093ZM213.331 179.111L182.312 156.574L141.364 186.325V202.148L182.795 232.248L197.632 227.429L213.331 179.111ZM180.969 150.774L219.261 178.6H231.451C217.791 160.587 198.973 146.707 177.193 139.156L180.969 150.774ZM96.3621 156.574L65.344 179.111L80.9842 227.248L96.0336 232.14L137.463 202.04V186.433L96.3621 156.574ZM59.4142 178.6L97.7073 150.774L101.483 139.156C79.7051 146.707 60.8846 160.587 47.2256 178.6H59.4142ZM39.8965 260.044L52.0069 297.315L101.246 297.321L111.197 283.622L95.7749 236.159L79.8838 230.991L39.8965 260.044ZM48.9981 300.684L35.4853 259.093L23.8297 250.622C24.2894 274.315 31.8803 296.256 44.5429 314.396L48.9981 300.684ZM262.676 248.342C262.676 316.453 207.453 371.678 139.338 371.678C71.2226 371.678 16 316.453 16 248.342C16 180.224 71.2226 125 139.338 125C207.453 125 262.676 180.224 262.676 248.342Z" fill="#582318"/>
<defs>
<clipPath id="clip0_644_135">
<rect width="291" height="292" fill="white" transform="translate(263 296)"/>
</clipPath>
</defs>
</svg>
