<svg width="100" height="100" viewBox="0 0 100 100" fill="none" xmlns="http://www.w3.org/2000/svg">
<circle cx="50" cy="50" r="50" fill="white"/>
<path fill-rule="evenodd" clip-rule="evenodd" d="M49.9522 7.72105C73.2749 7.72105 92.1817 26.6279 92.1817 49.9527C92.1817 73.2753 73.2749 92.1821 49.9522 92.1821C26.6289 92.1821 7.72168 73.2753 7.72168 49.9527C7.72168 26.6279 26.6289 7.72105 49.9522 7.72105Z" fill="#F57E14"/>
<path fill-rule="evenodd" clip-rule="evenodd" d="M49.9522 7.72093C53.8022 7.72093 57.5278 8.23972 61.0712 9.20435C33.4866 11.0757 11.3733 32.8743 9.00614 60.3213C8.16841 57.003 7.72168 53.5303 7.72168 49.9526C7.72168 26.6277 26.6289 7.72093 49.9522 7.72093Z" fill="white"/>
<path fill-rule="evenodd" clip-rule="evenodd" d="M85.7442 27.5346C89.8235 34.0319 92.1815 41.7168 92.1815 49.9527C92.1815 73.2753 73.2747 92.1821 49.9521 92.1821C38.5295 92.1821 28.1679 87.6462 20.5659 80.2764C23.5301 80.7609 26.5709 81.016 29.6716 81.016C59.7849 81.016 84.3573 57.3053 85.7442 27.5346Z" fill="#F25D19"/>
<path fill-rule="evenodd" clip-rule="evenodd" d="M9.76052 62.8146C9.76052 62.8146 20.7612 60.5488 28.6058 52.7031C36.4506 44.8596 39.3203 37.6334 41.1083 31.6827C42.8961 25.732 42.1501 13.2968 42.1501 13.2968L41.3134 8.80807L37.4806 9.67837C37.4806 9.67837 39.3921 16.6666 38.1666 23.8992C36.9409 31.1297 34.4892 38.9753 28.1768 46.5745C21.8643 54.1737 14.1423 57.1147 14.1423 57.1147L8.01367 59.0161L9.76052 62.8146ZM63.1784 90.5403C63.1784 90.5403 58.5782 72.3023 66.3574 60.9775C74.1388 49.6527 76.4968 48.5445 82.0467 44.9818C87.5986 41.4191 90.932 41.1768 90.932 41.1768L90.7498 37.0761C90.7498 37.0761 81.9866 38.9753 73.8966 45.2883C65.8065 51.6013 62.4367 58.8939 62.4367 58.8939C62.4367 58.8939 57.7165 68.148 57.4721 76.298C57.2277 84.4502 58.6983 91.8672 58.6983 91.8672L63.1784 90.5403Z" fill="#F5F0A1"/>
<path fill-rule="evenodd" clip-rule="evenodd" d="M82.1153 44.9388C87.6265 41.4168 90.932 41.1767 90.932 41.1767L90.8548 39.4061C90.664 38.6644 90.4518 37.9291 90.2224 37.2046C89.2192 37.4618 86.8677 38.1349 83.903 39.4146C83.4014 41.2967 82.8034 43.1403 82.1153 44.9388ZM63.0756 90.1007C62.6147 88.0429 60.8312 79.0632 62.5825 70.3601C61.0177 71.494 59.3928 72.5487 57.7122 73.5176C57.5836 74.4501 57.5 75.3804 57.4721 76.2979C57.2663 83.1104 58.261 89.4105 58.5932 91.2969C60.1195 90.9775 61.6136 90.5766 63.0756 90.1007Z" fill="#ECCD81"/>
<path fill-rule="evenodd" clip-rule="evenodd" d="M36.835 43.1807C31.0178 52.9127 21.8534 60.051 11.0193 63.3158C14.06 72.1882 20.1295 80.0639 28.7717 85.2472L49.0026 50.2053L36.835 43.1807ZM42.0583 9.55356C44.6496 20.5718 43.0479 32.0767 37.5297 41.9759L49.6976 49.0028L69.9285 13.9609C61.1182 9.06699 51.2618 7.75077 42.0583 9.55356ZM32.7145 39.1978C37.4967 30.574 38.8984 20.5804 36.6841 10.9877C27.7732 14.0166 19.8581 20.0981 14.6568 28.7712L32.7145 39.1978ZM9.57382 57.9438C18.9869 55.0649 26.9426 48.8548 32.0197 40.4004L13.9618 29.9759C9.05055 38.8162 7.7423 48.7112 9.57382 57.9438ZM38.0125 10.5611C40.277 20.2545 39.0618 30.769 33.7915 40.1196L33.7861 40.1281C33.7171 40.2525 33.6472 40.3746 33.5765 40.4968C33.5057 40.619 33.4343 40.7412 33.3623 40.8634L33.3569 40.872L33.3559 40.8741C27.9119 50.0789 19.3959 56.4197 9.869 59.3072C10.0799 60.2096 10.3215 61.1057 10.5927 61.9931C20.7284 58.9449 29.7897 52.2503 35.6309 42.4861L35.6367 42.4754L35.7424 42.2996C35.8234 42.1625 35.904 42.0252 35.9837 41.888C36.0616 41.7509 36.1385 41.6158 36.2148 41.4808L36.22 41.4722L36.3207 41.2921L36.3261 41.2814C41.8618 31.3414 43.1265 20.1474 40.6991 9.84512C39.7957 10.0531 38.8995 10.2931 38.0125 10.5611ZM67.1889 60.707C62.4065 69.3286 61.0067 79.3244 63.219 88.9171C72.13 85.886 80.0464 79.8045 85.2469 71.1314L67.1889 60.707ZM90.3316 41.9588C80.9168 44.8377 72.9617 51.0499 67.8856 59.5022L85.9414 69.9289C90.8525 61.0864 92.1622 51.1914 90.3316 41.9588ZM89.3112 37.9116C79.1761 40.9599 70.115 47.6523 64.2736 57.4186L64.2672 57.4272L64.1686 57.5944L64.1622 57.603C64.0807 57.7402 63.9992 57.8774 63.9199 58.0167C63.8449 58.1475 63.7699 58.2804 63.6948 58.4133L63.6884 58.4219C63.652 58.4883 63.6155 58.5548 63.5791 58.6212C58.0421 68.5612 56.7774 79.7552 59.2061 90.0575C60.1086 89.8496 61.0046 89.6116 61.8921 89.3415C59.6455 79.7274 60.831 69.29 65.9864 60.0103L65.9907 60.0017C66.0314 59.9288 66.0721 59.8559 66.1129 59.7831C66.1836 59.6566 66.2543 59.5322 66.3272 59.4058C66.4001 59.2814 66.473 59.1571 66.5459 59.0349C71.9971 49.8109 80.5073 43.4829 90.0357 40.5955C89.8235 39.693 89.5834 38.7969 89.3112 37.9116ZM63.0689 56.7219C68.8867 46.9877 78.0529 39.8516 88.8846 36.589C85.845 27.7165 79.7742 19.8387 71.1332 14.6554L50.9017 49.6973L63.0689 56.7219ZM57.847 90.3512C55.2554 79.3308 56.8567 67.8259 62.3744 57.9267L50.2071 50.8999L29.9756 85.9417C38.7855 90.8356 48.6421 92.1518 57.847 90.3512ZM88.01 71.9246C75.8749 92.9428 48.9973 100.143 27.9794 88.0082C6.96161 75.8753 -0.240132 48.9963 11.8945 27.978C24.0292 6.96191 50.906 -0.240651 71.9242 11.8944C92.9425 24.0295 100.145 50.9063 88.01 71.9246Z" fill="#B53B20"/>
</svg>
