<svg width="100" height="101" viewBox="0 0 100 101" fill="none" xmlns="http://www.w3.org/2000/svg">
<path fill-rule="evenodd" clip-rule="evenodd" d="M66.7766 75.5607C72.8024 75.5607 76.2353 78.5573 76.2353 84.5831C76.2353 90.609 73.6821 95.1419 67.6562 95.1419C61.6279 95.1419 55.8649 92.4982 55.8649 86.4724C55.8649 80.4465 60.7482 75.5607 66.7766 75.5607ZM60.9235 73.6285L16.842 28.9294C11.7647 38.78 13.1593 48.8983 19.7961 58.8649C23.1397 63.8865 22.6906 66.934 18.11 70.813C13.0317 75.114 9.79581 77.7666 4.71702 82.0676C3.05115 83.4766 2.948 85.8923 4.48728 87.4296C6.9144 89.8577 9.34176 92.2859 11.7691 94.7115C13.3084 96.2513 15.7222 96.1476 17.1329 94.482C21.4337 89.4037 23.8918 85.9739 28.1924 80.8956C32.0712 76.3133 35.1191 75.8666 40.1404 79.2078C44.2801 81.9665 48.505 83.9826 52.736 85.0387C53.2492 79.953 56.4645 75.6643 60.9235 73.6285ZM77.5552 76.444C76.6287 75.3858 78.9 74.4392 79.095 74.2443C120.23 24.7498 60.837 -19.6852 23.6612 22.3301C21.9674 24.0229 18.7353 23.9954 17.5595 25.74L64.383 72.565C65.1603 72.4318 65.9598 72.3602 66.7766 72.3602C71.2626 72.3602 74.9691 73.1769 77.5552 76.444ZM2.22475 89.6924C-0.629015 86.8399 -0.852065 81.2496 2.22477 78.6438C7.30332 74.3428 10.5393 71.6903 15.618 67.3892C18.9392 64.5787 19.5467 64.2616 17.1329 60.6391C7.52135 46.2037 6.76134 31.1465 19.5921 18.315C68.6483 -30.7419 131.229 28.9294 82.1746 77.9839C81.7996 78.3589 80.4148 79.329 80.4148 79.329C80.8862 81.5035 80.8862 84.1432 80.8862 86.4724C80.8862 94.265 74.5667 100.582 66.7766 100.582C59.6131 100.582 52.0686 94.7969 51.1581 87.8828C46.3532 86.8118 43.1398 85.051 38.367 81.8728C34.7423 79.4595 34.3931 80.8218 31.5803 84.1432C27.2798 89.2215 24.8219 92.6513 20.5209 97.7296C17.9151 100.807 12.3604 99.8293 9.50661 96.9743C7.07924 94.5486 4.65187 92.1205 2.22475 89.6924Z" fill="white"/>
<path fill-rule="evenodd" clip-rule="evenodd" d="M14.5757 94.834C14.5757 94.834 17.9374 94.834 18.9717 94.0584C20.0061 93.2828 33.5821 75.5054 35.7153 76.4099C37.8487 77.3166 48.4505 84.8147 54.6563 84.0391C60.8632 83.2635 68.7502 77.5088 68.7502 77.5088L27.1818 25.6622L18.7132 28.3123C18.7132 28.3123 12.0545 37.9449 15.2868 47.3831C18.5192 56.8213 23.0443 59.9892 22.5271 62.576C22.01 65.1628 22.8505 66.9061 17.2909 70.9808C11.7311 75.0532 4.10303 81.2579 4.10303 83.1979C4.10303 85.138 6.3009 87.7226 6.3009 87.7226L14.5757 94.834Z" fill="#F1B20D"/>
<path fill-rule="evenodd" clip-rule="evenodd" d="M25.252 26.2656L18.7136 28.312C18.7136 28.312 12.0548 37.9446 15.2872 47.3828C14.4738 44.2307 17.7964 34.9689 25.252 26.2656Z" fill="white"/>
<path fill-rule="evenodd" clip-rule="evenodd" d="M14.5758 94.834C14.5758 94.834 17.9375 94.834 18.9718 94.0584C20.0063 93.2828 33.5822 75.5054 35.7154 76.4099C37.8488 77.3166 48.4506 84.8147 54.6564 84.0391C60.8634 83.2635 68.7504 77.5088 68.7504 77.5088L63.8798 71.433C63.1924 71.7383 62.4937 72.0367 61.7701 72.3171C52.3613 75.9667 43.7887 73.701 39.026 71.7202C35.2663 70.1577 31.9575 72.1046 29.4205 74.8361C25.1688 79.415 19.599 85.9068 16.385 89.2737C14.917 90.8113 13.2429 91.7249 11.5576 92.2404L14.5758 94.834Z" fill="#F57E14"/>
<path fill-rule="evenodd" clip-rule="evenodd" d="M18.7134 28.3119L63.258 73.8363L71.7894 82.2275C71.7894 82.2275 84.746 68.5225 90.148 58.9555C95.5499 49.3884 95.5793 30.1231 84.0722 15.7714C72.565 1.41968 39.0771 -1.09476 18.7134 28.3119Z" fill="#B91D24"/>
<path fill-rule="evenodd" clip-rule="evenodd" d="M18.7134 28.3117L21.5023 31.1631C30.5715 17.8425 49.3811 2.89831 77.9466 10.4371C63.3281 1.3494 36.1885 3.07694 18.7134 28.3117Z" fill="white"/>
<path fill-rule="evenodd" clip-rule="evenodd" d="M61.77 72.3168L63.2579 73.8363L71.7893 82.2275C71.7893 82.2275 84.7459 68.5225 90.1479 58.9555C94.824 50.6705 95.4729 35.1181 88.0924 21.7771C89.1801 32.6353 89.7725 61.4518 61.77 72.3168Z" fill="#8C191D"/>
<path fill-rule="evenodd" clip-rule="evenodd" d="M65.4538 73.3118C71.1226 73.3118 75.7151 77.9043 75.7151 83.5708C75.7151 89.2373 71.1226 93.832 65.4538 93.832C59.7895 93.832 55.1948 89.2373 55.1948 83.5708C55.1948 77.9043 59.7895 73.3118 65.4538 73.3118Z" fill="#F5F0A1"/>
<path fill-rule="evenodd" clip-rule="evenodd" d="M65.4538 73.3119C66.3899 73.3119 67.2967 73.4363 68.1559 73.6714C61.4538 74.1259 56.0812 79.4216 55.5069 86.0898C55.3034 85.2849 55.1948 84.4414 55.1948 83.5709C55.1948 77.9044 59.7895 73.3119 65.4538 73.3119Z" fill="white"/>
<path fill-rule="evenodd" clip-rule="evenodd" d="M74.15 78.1259C75.1404 79.7042 75.7147 81.5696 75.7147 83.5708C75.7147 89.2373 71.1223 93.832 65.4535 93.832C62.679 93.832 60.1623 92.7286 58.3149 90.94C59.0363 91.0576 59.7734 91.1186 60.5264 91.1186C67.8436 91.1186 73.8131 85.3571 74.15 78.1259Z" fill="#ECCD81"/>
<path fill-rule="evenodd" clip-rule="evenodd" d="M65.4538 73.5945C70.9756 73.5945 75.4505 78.0716 75.4505 83.5934C75.4505 89.1152 70.9756 93.5924 65.4538 93.5924C59.9297 93.5924 55.4548 89.1152 55.4548 83.5934C55.4548 78.0716 59.9297 73.5945 65.4538 73.5945ZM60.0903 71.824L18.8106 30.5461C14.158 39.5727 16.3215 49.1624 22.4031 58.2953C25.467 62.8968 25.0555 65.6894 20.8581 69.2439C16.2046 73.1852 11.5506 77.1264 6.89662 81.0677C5.3701 82.3588 5.27558 84.5725 6.68611 85.9812C8.9102 88.2062 11.1345 90.4312 13.3588 92.654C14.7694 94.0649 16.9813 93.97 18.274 92.4437C22.215 87.7902 26.1562 83.1367 30.097 78.4831C33.6514 74.2841 36.4444 73.8748 41.0457 76.9365C44.839 79.4645 48.7106 81.3119 52.5876 82.2797C53.058 77.6194 56.0043 73.6894 60.0903 71.824ZM75.5974 75.5753C75.7738 75.4034 75.9524 75.2293 76.1311 75.0507C119.591 31.5907 67.7489 -20.2491 24.2894 23.2108C22.7373 24.762 21.431 26.3425 20.3536 27.9412L63.2604 70.8494C63.9727 70.7273 64.7053 70.6617 65.4538 70.6617C69.5646 70.6617 73.2277 72.5815 75.5974 75.5753ZM4.61283 88.0547C1.99777 85.4408 2.18228 81.2169 5.00175 78.8291C9.65548 74.8879 14.3095 70.9466 18.9634 67.0054C22.0067 64.4299 22.1745 63.2405 19.9626 59.9211C11.1551 46.6932 10.4587 32.8954 22.2161 21.1373C68.4159 -25.0632 124.403 30.926 78.2046 77.1242C77.8609 77.4679 77.5172 77.798 77.1712 78.1213C77.9491 79.7833 78.3832 81.6375 78.3832 83.5934C78.3832 90.7342 72.5923 96.5228 65.4538 96.5228C58.8895 96.5228 53.4672 91.6319 52.6329 85.2961C48.2299 84.3147 43.7941 82.291 39.4206 79.3786C36.0991 77.1671 34.912 77.3345 32.3345 80.378C28.3937 85.0315 24.4527 89.685 20.5114 94.3385C18.1236 97.1582 13.9006 97.3437 11.2856 94.7275C9.06126 92.5047 6.83693 90.2797 4.61283 88.0547Z" fill="black"/>
</svg>
