<svg width="100" height="100" viewBox="0 0 100 100" fill="none" xmlns="http://www.w3.org/2000/svg">
<circle cx="50" cy="50" r="50" fill="white"/>
<path fill-rule="evenodd" clip-rule="evenodd" d="M49.942 7.46006C73.4042 7.46006 92.4242 26.4796 92.4242 49.9435C92.4242 73.4053 73.4042 92.4248 49.942 92.4248C26.4794 92.4248 7.45947 73.4053 7.45947 49.9435C7.45947 26.4796 26.4794 7.46006 49.942 7.46006Z" fill="#F5F0A1"/>
<path fill-rule="evenodd" clip-rule="evenodd" d="M49.942 7.46C53.8137 7.46 57.5632 7.98188 61.1278 8.95227C33.378 10.8348 11.1329 32.7633 8.75159 60.374C7.90908 57.0359 7.45947 53.5425 7.45947 49.9435C7.45947 26.4796 26.4794 7.46 49.942 7.46Z" fill="white"/>
<path fill-rule="evenodd" clip-rule="evenodd" d="M85.948 27.3918C90.0497 33.9279 92.4239 41.6586 92.4239 49.9435C92.4239 73.4053 73.4039 92.4248 49.9417 92.4248C38.4509 92.4248 28.0274 87.8619 20.3804 80.4481C23.362 80.9355 26.4207 81.1921 29.5399 81.1921C59.833 81.1921 84.5526 57.34 85.948 27.3918Z" fill="#ECCD81"/>
<path fill-rule="evenodd" clip-rule="evenodd" d="M42.824 84.8472H57.0592L62.4187 68.3528L58.7082 63.2442H41.1073L37.4434 68.2881L42.824 84.8472ZM57.3796 86.2445H42.5032L37.9158 89.5783C41.7221 90.732 45.7591 91.353 49.9419 91.353C54.1243 91.353 58.1613 90.732 61.9669 89.5783L57.3796 86.2445ZM81.2427 67.4988L85.5835 54.1377L71.3057 43.7654L65.5347 45.6393L60.0072 62.6534L63.5267 67.4988H81.2427ZM87.1644 53.797L82.3209 68.7043L83.9179 73.6187C88.4569 67.1172 91.1777 59.2527 91.3426 50.7608L87.1644 53.797ZM76.4628 25.1297L65.345 17.0518L50.6682 27.7152V33.3866L65.5179 44.1751L70.8358 42.4478L76.4628 25.1297ZM64.8634 14.973L78.5883 24.9464H82.9574C78.0613 18.4901 71.3165 13.5153 63.5101 10.809L64.8634 14.973ZM34.5385 17.0518L23.4209 25.1297L29.0267 42.3831L34.4207 44.1363L49.27 33.3477V27.754L34.5385 17.0518ZM21.2955 24.9464L35.0206 14.973L36.374 10.809C28.5682 13.5153 21.8225 18.4901 16.9268 24.9464H21.2955ZM14.2999 54.1377L18.6405 67.4967L36.289 67.4988L39.8557 62.5887L34.328 45.5768L28.6323 43.7244L14.2999 54.1377ZM17.5621 68.7043L12.7188 53.797L8.54122 50.7608C8.70597 59.2527 11.4267 67.1172 15.9653 73.6187L17.5621 68.7043ZM94.1492 49.9435C94.1492 74.3562 74.3559 94.1499 49.9419 94.1499C25.5279 94.1499 5.73486 74.3562 5.73486 49.9435C5.73486 25.5286 25.5279 5.73491 49.9419 5.73491C74.3559 5.73491 94.1492 25.5286 94.1492 49.9435Z" fill="#582318"/>
</svg>
