<svg width="100" height="100" viewBox="0 0 100 100" fill="none" xmlns="http://www.w3.org/2000/svg">
<circle cx="50" cy="50" r="50" fill="white"/>
<g clip-path="url(#clip0_649_7)">
<path d="M6.61475 48.7135C11.2794 55.9045 27.586 76.3793 58.1504 68.6772C57.5695 56.6934 50.1165 49.8138 50.1165 49.8138C29.1078 53.9793 16.8372 36.165 12.424 28.0503C8.89078 34.156 6.80157 41.1967 6.61475 48.7135Z" fill="#00147A"/>
<path d="M58.1504 68.6772C27.586 76.3793 11.2794 55.9044 6.61476 48.7134C6.60548 49.0801 6.58691 49.4445 6.58691 49.8134C6.58691 58.5544 9.17283 66.6867 13.6076 73.5062C14.2237 74.0909 28.401 87.2511 54.5585 85.5445C57.4962 79.1706 58.3845 73.508 58.1504 68.6772Z" fill="#ECC928"/>
<path d="M13.6078 73.5065C12.8015 72.2664 12.0581 70.9819 11.3784 69.6592C18.5955 83.7179 33.2272 93.3433 50.117 93.3433C51.9515 90.6385 53.4096 88.0382 54.559 85.5448C28.4012 87.2514 14.2239 74.0912 13.6078 73.5065Z" fill="#00147A"/>
<path d="M88.7906 69.7779C88.1133 71.0928 87.366 72.3752 86.5543 73.6213C95.187 60.3847 96.2941 42.9057 87.9226 28.2368C84.6642 27.9841 81.6828 28.0069 78.9478 28.2446C93.3954 50.1165 88.993 68.9527 88.7906 69.7779Z" fill="#00147A"/>
<path d="M47.5509 6.36619C49.0275 6.27757 50.5117 6.2659 51.9973 6.32818C36.2087 5.65842 20.6117 13.6258 12.2686 28.3108C13.7141 31.2419 15.2548 33.7943 16.8551 36.0252C28.2925 12.439 46.7383 6.61319 47.5509 6.36619Z" fill="#ECECEC"/>
<path d="M72.5621 12.5332C64.0056 13.0368 38.1481 17.1006 29.7466 47.4802C40.4532 52.8949 50.1163 49.8134 50.1163 49.8134C56.8726 29.4892 78.4232 27.62 87.6585 27.7916C84.0951 21.7033 79.0056 16.4093 72.5621 12.5332Z" fill="#ECECEC"/>
<path d="M29.7466 47.4805C38.1481 17.1009 64.0056 13.0368 72.5622 12.5335C72.2478 12.3443 71.9403 12.1482 71.6193 11.9658C64.0193 7.64786 55.6712 5.87899 47.5511 6.36612C46.7382 6.61313 28.2927 12.4389 16.855 36.0251C20.9457 41.7281 25.4304 45.2976 29.7466 47.4805Z" fill="#ECC928"/>
<path d="M70.7235 88.1403C74.6567 80.5248 84.3567 56.2134 62.5172 33.4858C52.3972 39.9305 50.116 49.8134 50.116 49.8134C64.1472 65.9948 54.7576 85.4822 49.8975 93.3373C56.952 93.3792 64.1022 91.7038 70.7235 88.1403Z" fill="#00147A"/>
<path d="M62.5176 33.4859C84.3568 56.2138 74.6571 80.5249 70.7239 88.1404C71.0469 87.9665 71.3727 87.8021 71.693 87.6192C79.2847 83.2865 85.0658 77.0096 88.7903 69.7779C88.9927 68.953 93.3951 50.1165 78.9472 28.2446C71.9556 28.8524 66.5975 30.8877 62.5176 33.4859Z" fill="#ECC928"/>
<g style="mix-blend-mode:color-burn">
<path d="M38.3976 92.0039C38.2605 91.97 38.128 91.9333 38 91.8939C38.1328 91.9311 38.2653 91.9677 38.3976 92.0039C45.8557 93.8458 66.712 87.2412 93.1733 48.101C93.7076 53.8058 95.298 61.0154 87.2689 75.1954C79.8357 86.5026 64.0388 99.0091 38.3976 92.0039Z" fill="#C1C1C1"/>
</g>
<g style="mix-blend-mode:soft-light">
<path d="M2.29613 59.2245C9.01817 42.3809 32.3648 6.53122 68.2919 3.37285C28.9554 -3.9981 1.62365 25.5005 2.29613 59.2245Z" fill="#D9D9D9"/>
</g>
</g>
<defs>
<clipPath id="clip0_649_7">
<rect width="87.1257" height="87.4251" fill="white" transform="translate(6.58691 6.2876)"/>
</clipPath>
</defs>
</svg>
